<svg width="52" height="286" viewBox="0 0 52 286" fill="none" xmlns="http://www.w3.org/2000/svg">
<g filter="url(#filter0_f_11_191)">
<path d="M44.6612 26.144C44.6612 27.936 44.3412 29.6853 43.7012 31.392C43.0612 33.056 42.3572 34.4853 41.5892 35.68C40.8638 36.832 39.6905 38.1547 38.0692 39.648C36.4905 41.0987 35.2318 42.1867 34.2932 42.912C33.3545 43.6373 31.8825 44.7253 29.8772 46.176C27.8718 47.584 26.5492 48.5227 25.9092 48.992H43.3172L41.5892 60H7.98917L7.86117 50.976L23.6692 38.816C26.5705 36.5973 28.4905 34.848 29.4292 33.568C30.4105 32.2027 30.9012 30.8587 30.9012 29.536C30.9012 27.488 29.4505 26.464 26.5492 26.464C22.8798 26.464 19.2532 28.0853 15.6692 31.328L11.9572 21.344C16.7358 17.248 22.7092 15.2 29.8772 15.2C31.7545 15.2 33.5252 15.392 35.1892 15.776C36.8532 16.16 38.4105 16.7573 39.8612 17.568C41.3545 18.336 42.5278 19.4667 43.3812 20.96C44.2345 22.4107 44.6612 24.1387 44.6612 26.144ZM46.4532 105.544C46.4532 108.36 46.1545 111.133 45.5572 113.864C44.9598 116.552 44.0425 119.112 42.8052 121.544C41.5678 123.933 40.0532 126.045 38.2612 127.88C36.4692 129.672 34.2932 131.101 31.7332 132.168C29.2158 133.235 26.4425 133.768 23.4132 133.768C18.2078 133.768 14.2825 132.211 11.6372 129.096C8.99184 125.939 7.66917 121.715 7.66917 116.424C7.66917 112.84 8.13851 109.405 9.07717 106.12C10.0585 102.792 11.4665 99.784 13.3012 97.096C15.1358 94.408 17.5465 92.2533 20.5332 90.632C23.5625 89.0107 26.9332 88.2 30.6452 88.2C35.8505 88.2 39.7758 89.7787 42.4212 92.936C45.1092 96.0507 46.4532 100.253 46.4532 105.544ZM32.7572 106.44C32.7572 102.344 31.4132 100.296 28.7252 100.296C27.3598 100.296 26.1438 100.851 25.0772 101.96C24.0532 103.069 23.2852 104.477 22.7732 106.184C22.3038 107.848 21.9412 109.448 21.6852 110.984C21.4718 112.477 21.3652 113.864 21.3652 115.144C21.3652 119.325 22.7092 121.416 25.3972 121.416C26.7625 121.416 27.9572 120.861 28.9812 119.752C30.0478 118.6 30.8158 117.171 31.2852 115.464C31.7972 113.757 32.1598 112.157 32.3732 110.664C32.6292 109.128 32.7572 107.72 32.7572 106.44ZM24.3847 161.84H44.9287L37.9527 206H24.4487L29.9527 171.568H22.8487L24.3847 161.84ZM45.1732 234.84L47.8612 243.224L24.6932 279H10.1012L32.2452 245.784H12.0212L13.7492 234.84H45.1732Z" fill="#83ABB4"/>
</g>
<path d="M38.7233 28.26C38.7233 29.94 38.4233 31.58 37.8233 33.18C37.2233 34.74 36.5633 36.08 35.8433 37.2C35.1633 38.28 34.0633 39.52 32.5433 40.92C31.0633 42.28 29.8833 43.3 29.0033 43.98C28.1233 44.66 26.7433 45.68 24.8633 47.04C22.9833 48.36 21.7433 49.24 21.1433 49.68H37.4633L35.8433 60H4.3433L4.2233 51.54L19.0433 40.14C21.7633 38.06 23.5633 36.42 24.4433 35.22C25.3633 33.94 25.8233 32.68 25.8233 31.44C25.8233 29.52 24.4633 28.56 21.7433 28.56C18.3033 28.56 14.9033 30.08 11.5433 33.12L8.0633 23.76C12.5433 19.92 18.1433 18 24.8633 18C26.6233 18 28.2833 18.18 29.8433 18.54C31.4033 18.9 32.8633 19.46 34.2233 20.22C35.6233 20.94 36.7233 22 37.5233 23.4C38.3233 24.76 38.7233 26.38 38.7233 28.26ZM40.4033 102.26C40.4033 104.9 40.1233 107.5 39.5633 110.06C39.0033 112.58 38.1433 114.98 36.9833 117.26C35.8233 119.5 34.4033 121.48 32.7233 123.2C31.0433 124.88 29.0033 126.22 26.6033 127.22C24.2433 128.22 21.6433 128.72 18.8033 128.72C13.9233 128.72 10.2433 127.26 7.7633 124.34C5.2833 121.38 4.0433 117.42 4.0433 112.46C4.0433 109.1 4.4833 105.88 5.3633 102.8C6.2833 99.68 7.6033 96.86 9.3233 94.34C11.0433 91.82 13.3033 89.8 16.1033 88.28C18.9433 86.76 22.1033 86 25.5833 86C30.4633 86 34.1433 87.48 36.6233 90.44C39.1433 93.36 40.4033 97.3 40.4033 102.26ZM27.5633 103.1C27.5633 99.26 26.3033 97.34 23.7833 97.34C22.5033 97.34 21.3633 97.86 20.3633 98.9C19.4033 99.94 18.6833 101.26 18.2033 102.86C17.7633 104.42 17.4233 105.92 17.1833 107.36C16.9833 108.76 16.8833 110.06 16.8833 111.26C16.8833 115.18 18.1433 117.14 20.6633 117.14C21.9433 117.14 23.0633 116.62 24.0233 115.58C25.0233 114.5 25.7433 113.16 26.1833 111.56C26.6633 109.96 27.0033 108.46 27.2033 107.06C27.4433 105.62 27.5633 104.3 27.5633 103.1ZM19.7141 154.6H38.9741L32.4341 196H19.7741L24.9341 163.72H18.2741L19.7141 154.6ZM39.2033 222.6L41.7233 230.46L20.0033 264H6.3233L27.0833 232.86H8.1233L9.7433 222.6H39.2033Z" fill="white" fill-opacity="0.9"/>
<defs>
<filter id="filter0_f_11_191" x="3.66919" y="11.2" width="48.192" height="271.8" filterUnits="userSpaceOnUse" color-interpolation-filters="sRGB">
<feFlood flood-opacity="0" result="BackgroundImageFix"/>
<feBlend mode="normal" in="SourceGraphic" in2="BackgroundImageFix" result="shape"/>
<feGaussianBlur stdDeviation="2" result="effect1_foregroundBlur_11_191"/>
</filter>
</defs>
</svg>
