<svg width="51" height="291" viewBox="0 0 51 291" fill="none" xmlns="http://www.w3.org/2000/svg">
<g filter="url(#filter0_f_11_152)">
<path d="M44.6612 26.144C44.6612 27.936 44.3412 29.6853 43.7012 31.392C43.0612 33.056 42.3572 34.4853 41.5892 35.68C40.8638 36.832 39.6905 38.1547 38.0692 39.648C36.4905 41.0987 35.2318 42.1867 34.2932 42.912C33.3545 43.6373 31.8825 44.7253 29.8772 46.176C27.8718 47.584 26.5492 48.5227 25.9092 48.992H43.3172L41.5892 60H7.98917L7.86117 50.976L23.6692 38.816C26.5705 36.5973 28.4905 34.848 29.4292 33.568C30.4105 32.2027 30.9012 30.8587 30.9012 29.536C30.9012 27.488 29.4505 26.464 26.5492 26.464C22.8798 26.464 19.2532 28.0853 15.6692 31.328L11.9572 21.344C16.7358 17.248 22.7092 15.2 29.8772 15.2C31.7545 15.2 33.5252 15.392 35.1892 15.776C36.8532 16.16 38.4105 16.7573 39.8612 17.568C41.3545 18.336 42.5278 19.4667 43.3812 20.96C44.2345 22.4107 44.6612 24.1387 44.6612 26.144ZM46.4532 105.544C46.4532 108.36 46.1545 111.133 45.5572 113.864C44.9598 116.552 44.0425 119.112 42.8052 121.544C41.5678 123.933 40.0532 126.045 38.2612 127.88C36.4692 129.672 34.2932 131.101 31.7332 132.168C29.2158 133.235 26.4425 133.768 23.4132 133.768C18.2078 133.768 14.2825 132.211 11.6372 129.096C8.99184 125.939 7.66917 121.715 7.66917 116.424C7.66917 112.84 8.13851 109.405 9.07717 106.12C10.0585 102.792 11.4665 99.784 13.3012 97.096C15.1358 94.408 17.5465 92.2533 20.5332 90.632C23.5625 89.0107 26.9332 88.2 30.6452 88.2C35.8505 88.2 39.7758 89.7787 42.4212 92.936C45.1092 96.0507 46.4532 100.253 46.4532 105.544ZM32.7572 106.44C32.7572 102.344 31.4132 100.296 28.7252 100.296C27.3598 100.296 26.1438 100.851 25.0772 101.96C24.0532 103.069 23.2852 104.477 22.7732 106.184C22.3038 107.848 21.9412 109.448 21.6852 110.984C21.4718 112.477 21.3652 113.864 21.3652 115.144C21.3652 119.325 22.7092 121.416 25.3972 121.416C26.7625 121.416 27.9572 120.861 28.9812 119.752C30.0478 118.6 30.8158 117.171 31.2852 115.464C31.7972 113.757 32.1598 112.157 32.3732 110.664C32.6292 109.128 32.7572 107.72 32.7572 106.44ZM24.3847 161.84H44.9287L37.9527 206H24.4487L29.9527 171.568H22.8487L24.3847 161.84ZM45.2372 251.416C45.2372 255.128 44.7038 258.669 43.6372 262.04C42.5705 265.411 41.0345 268.419 39.0292 271.064C37.0238 273.709 34.4425 275.821 31.2852 277.4C28.1705 278.936 24.6932 279.704 20.8532 279.704C18.3785 279.704 15.8825 279.363 13.3652 278.68C10.8905 277.955 8.86384 276.867 7.28517 275.416L13.4292 266.072C16.0745 267.907 18.9118 268.824 21.9412 268.824C24.3305 268.824 26.2505 268.077 27.7012 266.584C29.1945 265.048 30.1545 263.043 30.5812 260.568C27.9785 262.872 24.5438 264.024 20.2772 264.024C17.0345 264.024 14.3892 263.021 12.3412 261.016C10.3358 258.968 9.33317 256.344 9.33317 253.144C9.33317 247.555 11.2532 243.011 15.0932 239.512C18.9758 235.971 23.7545 234.2 29.4292 234.2C34.4638 234.2 38.3465 235.8 41.0772 239C43.8505 242.157 45.2372 246.296 45.2372 251.416ZM32.3732 248.92C32.3732 247.725 31.9892 246.765 31.2212 246.04C30.4958 245.272 29.5358 244.888 28.3412 244.888C26.8478 244.888 25.5465 245.464 24.4372 246.616C23.3705 247.725 22.8372 249.048 22.8372 250.584C22.8372 251.736 23.1998 252.696 23.9252 253.464C24.6932 254.232 25.6532 254.616 26.8052 254.616C28.2985 254.616 29.5998 254.04 30.7092 252.888C31.8185 251.736 32.3732 250.413 32.3732 248.92Z" fill="#83ABB4"/>
</g>
<path d="M38.7233 33.26C38.7233 34.94 38.4233 36.58 37.8233 38.18C37.2233 39.74 36.5633 41.08 35.8433 42.2C35.1633 43.28 34.0633 44.52 32.5433 45.92C31.0633 47.28 29.8833 48.3 29.0033 48.98C28.1233 49.66 26.7433 50.68 24.8633 52.04C22.9833 53.36 21.7433 54.24 21.1433 54.68H37.4633L35.8433 65H4.3433L4.2233 56.54L19.0433 45.14C21.7633 43.06 23.5633 41.42 24.4433 40.22C25.3633 38.94 25.8233 37.68 25.8233 36.44C25.8233 34.52 24.4633 33.56 21.7433 33.56C18.3033 33.56 14.9033 35.08 11.5433 38.12L8.0633 28.76C12.5433 24.92 18.1433 23 24.8633 23C26.6233 23 28.2833 23.18 29.8433 23.54C31.4033 23.9 32.8633 24.46 34.2233 25.22C35.6233 25.94 36.7233 27 37.5233 28.4C38.3233 29.76 38.7233 31.38 38.7233 33.26ZM40.4033 107.26C40.4033 109.9 40.1233 112.5 39.5633 115.06C39.0033 117.58 38.1433 119.98 36.9833 122.26C35.8233 124.5 34.4033 126.48 32.7233 128.2C31.0433 129.88 29.0033 131.22 26.6033 132.22C24.2433 133.22 21.6433 133.72 18.8033 133.72C13.9233 133.72 10.2433 132.26 7.7633 129.34C5.2833 126.38 4.0433 122.42 4.0433 117.46C4.0433 114.1 4.4833 110.88 5.3633 107.8C6.2833 104.68 7.6033 101.86 9.3233 99.34C11.0433 96.82 13.3033 94.8 16.1033 93.28C18.9433 91.76 22.1033 91 25.5833 91C30.4633 91 34.1433 92.48 36.6233 95.44C39.1433 98.36 40.4033 102.3 40.4033 107.26ZM27.5633 108.1C27.5633 104.26 26.3033 102.34 23.7833 102.34C22.5033 102.34 21.3633 102.86 20.3633 103.9C19.4033 104.94 18.6833 106.26 18.2033 107.86C17.7633 109.42 17.4233 110.92 17.1833 112.36C16.9833 113.76 16.8833 115.06 16.8833 116.26C16.8833 120.18 18.1433 122.14 20.6633 122.14C21.9433 122.14 23.0633 121.62 24.0233 120.58C25.0233 119.5 25.7433 118.16 26.1833 116.56C26.6633 114.96 27.0033 113.46 27.2033 112.06C27.4433 110.62 27.5633 109.3 27.5633 108.1ZM19.7141 159.6H38.9741L32.4341 201H19.7741L24.9341 168.72H18.2741L19.7141 159.6ZM39.2633 243.14C39.2633 246.62 38.7633 249.94 37.7633 253.1C36.7633 256.26 35.3233 259.08 33.4433 261.56C31.5633 264.04 29.1433 266.02 26.1833 267.5C23.2633 268.94 20.0033 269.66 16.4033 269.66C14.0833 269.66 11.7433 269.34 9.3833 268.7C7.0633 268.02 5.1633 267 3.6833 265.64L9.4433 256.88C11.9233 258.6 14.5833 259.46 17.4233 259.46C19.6633 259.46 21.4633 258.76 22.8233 257.36C24.2233 255.92 25.1233 254.04 25.5233 251.72C23.0833 253.88 19.8633 254.96 15.8633 254.96C12.8233 254.96 10.3433 254.02 8.4233 252.14C6.5433 250.22 5.6033 247.76 5.6033 244.76C5.6033 239.52 7.4033 235.26 11.0033 231.98C14.6433 228.66 19.1233 227 24.4433 227C29.1633 227 32.8033 228.5 35.3633 231.5C37.9633 234.46 39.2633 238.34 39.2633 243.14ZM27.2033 240.8C27.2033 239.68 26.8433 238.78 26.1233 238.1C25.4433 237.38 24.5433 237.02 23.4233 237.02C22.0233 237.02 20.8033 237.56 19.7633 238.64C18.7633 239.68 18.2633 240.92 18.2633 242.36C18.2633 243.44 18.6033 244.34 19.2833 245.06C20.0033 245.78 20.9033 246.14 21.9833 246.14C23.3833 246.14 24.6033 245.6 25.6433 244.52C26.6833 243.44 27.2033 242.2 27.2033 240.8Z" fill="white" fill-opacity="0.9"/>
<defs>
<filter id="filter0_f_11_152" x="3.28516" y="11.2" width="47.168" height="272.504" filterUnits="userSpaceOnUse" color-interpolation-filters="sRGB">
<feFlood flood-opacity="0" result="BackgroundImageFix"/>
<feBlend mode="normal" in="SourceGraphic" in2="BackgroundImageFix" result="shape"/>
<feGaussianBlur stdDeviation="2" result="effect1_foregroundBlur_11_152"/>
</filter>
</defs>
</svg>
