<svg width="50" height="291" viewBox="0 0 50 291" fill="none" xmlns="http://www.w3.org/2000/svg">
<g filter="url(#filter0_f_11_150)">
<path d="M41.6612 26.144C41.6612 27.936 41.3412 29.6853 40.7012 31.392C40.0612 33.056 39.3572 34.4853 38.5892 35.68C37.8638 36.832 36.6905 38.1547 35.0692 39.648C33.4905 41.0987 32.2318 42.1867 31.2932 42.912C30.3545 43.6373 28.8825 44.7253 26.8772 46.176C24.8718 47.584 23.5492 48.5227 22.9092 48.992H40.3172L38.5892 60H4.98917L4.86117 50.976L20.6692 38.816C23.5705 36.5973 25.4905 34.848 26.4292 33.568C27.4105 32.2027 27.9012 30.8587 27.9012 29.536C27.9012 27.488 26.4505 26.464 23.5492 26.464C19.8798 26.464 16.2532 28.0853 12.6692 31.328L8.95717 21.344C13.7358 17.248 19.7092 15.2 26.8772 15.2C28.7545 15.2 30.5252 15.392 32.1892 15.776C33.8532 16.16 35.4105 16.7573 36.8612 17.568C38.3545 18.336 39.5278 19.4667 40.3812 20.96C41.2345 22.4107 41.6612 24.1387 41.6612 26.144ZM43.4532 105.544C43.4532 108.36 43.1545 111.133 42.5572 113.864C41.9598 116.552 41.0425 119.112 39.8052 121.544C38.5678 123.933 37.0532 126.045 35.2612 127.88C33.4692 129.672 31.2932 131.101 28.7332 132.168C26.2158 133.235 23.4425 133.768 20.4132 133.768C15.2078 133.768 11.2825 132.211 8.63717 129.096C5.99184 125.939 4.66917 121.715 4.66917 116.424C4.66917 112.84 5.13851 109.405 6.07717 106.12C7.05851 102.792 8.46651 99.784 10.3012 97.096C12.1358 94.408 14.5465 92.2533 17.5332 90.632C20.5625 89.0107 23.9332 88.2 27.6452 88.2C32.8505 88.2 36.7758 89.7787 39.4212 92.936C42.1092 96.0507 43.4532 100.253 43.4532 105.544ZM29.7572 106.44C29.7572 102.344 28.4132 100.296 25.7252 100.296C24.3598 100.296 23.1438 100.851 22.0772 101.96C21.0532 103.069 20.2852 104.477 19.7732 106.184C19.3038 107.848 18.9412 109.448 18.6852 110.984C18.4718 112.477 18.3652 113.864 18.3652 115.144C18.3652 119.325 19.7092 121.416 22.3972 121.416C23.7625 121.416 24.9572 120.861 25.9812 119.752C27.0478 118.6 27.8158 117.171 28.2852 115.464C28.7972 113.757 29.1598 112.157 29.3732 110.664C29.6292 109.128 29.7572 107.72 29.7572 106.44ZM41.6612 172.144C41.6612 173.936 41.3412 175.685 40.7012 177.392C40.0612 179.056 39.3572 180.485 38.5892 181.68C37.8638 182.832 36.6905 184.155 35.0692 185.648C33.4905 187.099 32.2318 188.187 31.2932 188.912C30.3545 189.637 28.8825 190.725 26.8772 192.176C24.8718 193.584 23.5492 194.523 22.9092 194.992H40.3172L38.5892 206H4.98917L4.86117 196.976L20.6692 184.816C23.5705 182.597 25.4905 180.848 26.4292 179.568C27.4105 178.203 27.9012 176.859 27.9012 175.536C27.9012 173.488 26.4505 172.464 23.5492 172.464C19.8798 172.464 16.2532 174.085 12.6692 177.328L8.95717 167.344C13.7358 163.248 19.7092 161.2 26.8772 161.2C28.7545 161.2 30.5252 161.392 32.1892 161.776C33.8532 162.16 35.4105 162.757 36.8612 163.568C38.3545 164.336 39.5278 165.467 40.3812 166.96C41.2345 168.411 41.6612 170.139 41.6612 172.144ZM21.3847 234.84H41.9287L34.9527 279H21.4487L26.9527 244.568H19.8487L21.3847 234.84Z" fill="#83ABB4" fill-opacity="0.9"/>
</g>
<path d="M48.0681 33.26C48.0681 34.94 47.7681 36.58 47.1681 38.18C46.5681 39.74 45.9081 41.08 45.1881 42.2C44.5081 43.28 43.4081 44.52 41.8881 45.92C40.4081 47.28 39.2281 48.3 38.3481 48.98C37.4681 49.66 36.0881 50.68 34.2081 52.04C32.3281 53.36 31.0881 54.24 30.4881 54.68H46.8081L45.1881 65H13.6881L13.5681 56.54L28.3881 45.14C31.1081 43.06 32.9081 41.42 33.7881 40.22C34.7081 38.94 35.1681 37.68 35.1681 36.44C35.1681 34.52 33.8081 33.56 31.0881 33.56C27.6481 33.56 24.2481 35.08 20.8881 38.12L17.4081 28.76C21.8881 24.92 27.4881 23 34.2081 23C35.9681 23 37.6281 23.18 39.1881 23.54C40.7481 23.9 42.2081 24.46 43.5681 25.22C44.9681 25.94 46.0681 27 46.8681 28.4C47.6681 29.76 48.0681 31.38 48.0681 33.26ZM49.7481 107.26C49.7481 109.9 49.4681 112.5 48.9081 115.06C48.3481 117.58 47.4881 119.98 46.3281 122.26C45.1681 124.5 43.7481 126.48 42.0681 128.2C40.3881 129.88 38.3481 131.22 35.9481 132.22C33.5881 133.22 30.9881 133.72 28.1481 133.72C23.2681 133.72 19.5881 132.26 17.1081 129.34C14.6281 126.38 13.3881 122.42 13.3881 117.46C13.3881 114.1 13.8281 110.88 14.7081 107.8C15.6281 104.68 16.9481 101.86 18.6681 99.34C20.3881 96.82 22.6481 94.8 25.4481 93.28C28.2881 91.76 31.4481 91 34.9281 91C39.8081 91 43.4881 92.48 45.9681 95.44C48.4881 98.36 49.7481 102.3 49.7481 107.26ZM36.9081 108.1C36.9081 104.26 35.6481 102.34 33.1281 102.34C31.8481 102.34 30.7081 102.86 29.7081 103.9C28.7481 104.94 28.0281 106.26 27.5481 107.86C27.1081 109.42 26.7681 110.92 26.5281 112.36C26.3281 113.76 26.2281 115.06 26.2281 116.26C26.2281 120.18 27.4881 122.14 30.0081 122.14C31.2881 122.14 32.4081 121.62 33.3681 120.58C34.3681 119.5 35.0881 118.16 35.5281 116.56C36.0081 114.96 36.3481 113.46 36.5481 112.06C36.7881 110.62 36.9081 109.3 36.9081 108.1ZM48.0681 169.26C48.0681 170.94 47.7681 172.58 47.1681 174.18C46.5681 175.74 45.9081 177.08 45.1881 178.2C44.5081 179.28 43.4081 180.52 41.8881 181.92C40.4081 183.28 39.2281 184.3 38.3481 184.98C37.4681 185.66 36.0881 186.68 34.2081 188.04C32.3281 189.36 31.0881 190.24 30.4881 190.68H46.8081L45.1881 201H13.6881L13.5681 192.54L28.3881 181.14C31.1081 179.06 32.9081 177.42 33.7881 176.22C34.7081 174.94 35.1681 173.68 35.1681 172.44C35.1681 170.52 33.8081 169.56 31.0881 169.56C27.6481 169.56 24.2481 171.08 20.8881 174.12L17.4081 164.76C21.8881 160.92 27.4881 159 34.2081 159C35.9681 159 37.6281 159.18 39.1881 159.54C40.7481 159.9 42.2081 160.46 43.5681 161.22C44.9681 161.94 46.0681 163 46.8681 164.4C47.6681 165.76 48.0681 167.38 48.0681 169.26ZM29.0589 227.6H48.3189L41.7789 269H29.1189L34.2789 236.72H27.6189L29.0589 227.6Z" fill="white" fill-opacity="0.9"/>
<defs>
<filter id="filter0_f_11_150" x="0.669189" y="11.2" width="46.784" height="271.8" filterUnits="userSpaceOnUse" color-interpolation-filters="sRGB">
<feFlood flood-opacity="0" result="BackgroundImageFix"/>
<feBlend mode="normal" in="SourceGraphic" in2="BackgroundImageFix" result="shape"/>
<feGaussianBlur stdDeviation="2" result="effect1_foregroundBlur_11_150"/>
</filter>
</defs>
</svg>
