<svg width="132" height="13" viewBox="0 0 132 13" fill="none" xmlns="http://www.w3.org/2000/svg">
<path d="M15.693 0.976L14.893 9.968H15.405L14.717 11.984V12H10.765L11.661 5.536L10.317 9.808H10.749L9.629 12.016V12H6.093L5.965 5.616L5.293 9.808H5.645L4.957 12.016V11.968V12H0.925003L2.045 7.136L1.309 7.072L3.453 1.024L3.469 0.976H8.717V6.992L10.781 0.976H15.693ZM29.1676 11.856L29.1836 12H29.1516H28.8796H24.9116L24.7996 10.464H22.3676L21.7756 12H18.8156H16.9116L18.4636 8.768H19.2636L20.1916 6.8H19.3916L22.8956 1.104L22.9436 1.008H27.5196L28.7036 8.768H29.5196L29.1676 11.856ZM23.2796 7.872H24.6876L24.5116 4.784L23.2796 7.872ZM37.8633 1.072C41.3833 1.072 43.1486 2.57067 43.1593 5.568C43.1593 7.88267 42.2793 9.648 40.5193 10.864C39.9326 11.2693 39.3086 11.5627 38.6473 11.744C37.9859 11.9147 37.2019 12 36.2953 12H31.9753L32.5993 8.048L32.0233 8L32.9353 3.232H32.5513L33.0793 1.072H37.8633ZM36.9993 8.576C38.3326 8.576 38.9993 7.68 38.9993 5.888C38.9993 5.568 38.9566 5.30133 38.8713 5.088C38.7966 4.87467 38.6579 4.70933 38.4553 4.592C38.2633 4.47467 37.9966 4.416 37.6553 4.416H37.2233L36.8393 6.88H37.2873L36.6153 8.288L36.5673 8.576H36.9993ZM55.6111 4.112H51.7871L51.6591 4.944H55.2911L54.8111 7.984H51.1951L51.0511 8.832H55.0031L54.5231 11.984H46.5391L47.1791 7.984H46.0751L47.0991 4.96H47.6431L48.2831 0.992H56.1071L55.6111 4.112ZM73.0988 6.272C73.6748 6.432 74.1228 6.71467 74.4428 7.12C74.7734 7.51467 74.9388 7.97867 74.9388 8.512C74.9388 9.024 74.8481 9.488 74.6668 9.904C74.4961 10.3093 74.2668 10.64 73.9788 10.896C73.7014 11.152 73.3654 11.3653 72.9708 11.536C72.5868 11.7067 72.1921 11.8293 71.7868 11.904C71.3921 11.968 70.9761 12 70.5388 12H64.8268L65.9628 4.848H65.1628L66.5068 1.392L66.5548 1.088H71.3548C71.7068 1.088 72.0428 1.10933 72.3628 1.152C72.6828 1.184 73.0134 1.25333 73.3548 1.36C73.6961 1.46667 73.9894 1.61067 74.2348 1.792C74.4801 1.96267 74.6828 2.19733 74.8428 2.496C75.0028 2.79467 75.0828 3.14133 75.0828 3.536C75.0828 4.848 74.4214 5.76 73.0988 6.272ZM70.2668 9.216C70.4588 9.216 70.6188 9.17333 70.7468 9.088C70.8748 9.00267 70.9601 8.90133 71.0028 8.784C71.0454 8.66667 71.0668 8.544 71.0668 8.416C71.0668 8.288 71.0348 8.18133 70.9708 8.096C70.9068 8 70.8214 7.93067 70.7148 7.888C70.6188 7.84533 70.5121 7.824 70.3948 7.824H69.2108L69.0668 8.736L69.5948 8.72L69.4028 9.216H70.2668ZM70.6028 5.248C71.1361 5.248 71.4028 4.98667 71.4028 4.464C71.4028 4.12267 71.2321 3.952 70.8908 3.952H69.8188L69.7068 4.704H70.0428L69.8668 5.248H70.6028ZM80.5171 8L78.0211 0.959999H82.5171L83.1251 4.592L84.9011 0.959999H89.3491L84.5971 8L84.1651 10.288L84.6611 10.176L84.3731 12H80.2931L80.6611 9.648L80.1651 9.776L80.5171 8ZM107.813 7.008H108.581L107.029 11.968V12H102.965L103.573 8.192H101.589L100.981 12H96.9169L98.1489 6.432H98.0369H97.0609L98.6449 0.959999V1.056L98.6609 0.959999H102.725L102.117 4.832H104.101L104.709 0.959999H108.773L107.445 7.008H107.813ZM115.985 10.096C115.985 10.7253 115.777 11.232 115.361 11.616C114.945 11.9893 114.417 12.176 113.777 12.176C113.297 12.176 112.903 12.0587 112.593 11.824C112.284 11.5893 112.129 11.2427 112.129 10.784C112.129 10.1547 112.337 9.65333 112.753 9.28C113.169 8.896 113.697 8.704 114.337 8.704C114.817 8.704 115.212 8.82133 115.521 9.056C115.831 9.29067 115.985 9.63733 115.985 10.096ZM125.855 1.072C129.375 1.072 131.14 2.57067 131.151 5.568C131.151 7.88267 130.271 9.648 128.511 10.864C127.924 11.2693 127.3 11.5627 126.639 11.744C125.978 11.9147 125.194 12 124.287 12H119.967L120.591 8.048L120.015 8L120.927 3.232H120.543L121.071 1.072H125.855ZM124.991 8.576C126.324 8.576 126.991 7.68 126.991 5.888C126.991 5.568 126.948 5.30133 126.863 5.088C126.788 4.87467 126.65 4.70933 126.447 4.592C126.255 4.47467 125.988 4.416 125.647 4.416H125.215L124.831 6.88H125.279L124.607 8.288L124.559 8.576H124.991Z" fill="white"/>
</svg>
